<svg width="1024" height="1024" viewBox="0 0 1024 1024" fill="none" xmlns="http://www.w3.org/2000/svg">
<rect width="1024" height="1024" fill="white"/>
<path d="M373.684 312.618L368.359 311.858C368.173 311.832 367.993 311.846 367.809 311.832C367.559 311.806 367.307 311.794 367.055 311.795C365.687 311.801 364.342 312.121 363.14 312.729L332.057 323.513L299.415 334.839C294.521 336.536 293.44 342.524 297.467 345.616L324.335 366.244L351.202 386.871C352.229 387.665 353.488 388.155 354.818 388.277C354.906 388.292 354.987 388.326 355.077 388.338L407.354 396.897L410.59 397.142L484.065 410.454L503.036 414.332C594.822 433.635 537.826 520.323 537.826 520.323C506.253 576.286 556.333 585.53 556.333 585.53L646.747 600.636C713.818 601.914 699.991 547.793 699.991 547.793L678.919 456.692C656.085 380.188 580.271 348.511 580.271 348.511L439.731 323.459L435.601 322.721L425.734 321.594" fill="url(#paint0_linear_1_228)"/>
<path d="M722.161 743.753L689.227 735.641L689.206 735.508L602.612 714.176C601.445 713.89 600.351 713.389 599.391 712.707C598.431 712.03 597.624 711.176 597.018 710.208C596.412 709.237 596.017 708.165 595.856 707.052C595.695 705.939 595.771 704.808 596.08 703.723L596.203 703.291C596.512 702.206 597.047 701.188 597.78 700.295C598.512 699.402 599.426 698.653 600.47 698.089C601.513 697.524 602.667 697.157 603.863 697.007C605.06 696.858 606.276 696.929 607.443 697.216L685.167 716.365L685.163 716.355L685.181 716.36C686.348 716.646 687.564 716.718 688.761 716.57C689.957 716.417 691.11 716.05 692.154 715.487C693.198 714.925 694.112 714.171 694.844 713.279C695.576 712.388 696.112 711.372 696.421 710.284L696.543 709.85C696.853 708.767 696.929 707.636 696.768 706.524C696.607 705.411 696.212 704.338 695.606 703.368C694.999 702.397 694.193 701.547 693.233 700.866C692.273 700.186 691.178 699.687 690.012 699.4L676.701 696.121L676.691 696.106L638.653 686.735C637.486 686.447 636.391 685.949 635.431 685.268C634.472 684.587 633.665 683.737 633.059 682.766C632.452 681.795 632.057 680.723 631.896 679.611C631.735 678.498 631.811 677.366 632.121 676.281L632.243 675.85C632.552 674.764 633.088 673.747 633.82 672.854C634.553 671.961 635.467 671.211 636.51 670.647C637.554 670.083 638.707 669.716 639.903 669.566C641.1 669.416 642.316 669.487 643.483 669.775L660.846 674.051L660.671 673.872L661.152 673.99C662.319 674.278 663.536 674.348 664.732 674.199C665.929 674.049 667.082 673.682 668.125 673.118C669.169 672.554 670.083 671.804 670.815 670.911C671.547 670.019 672.083 669.001 672.392 667.916L672.515 667.484C672.824 666.399 672.901 665.267 672.739 664.155C672.578 663.042 672.183 661.97 671.577 660.999C670.97 660.028 670.164 659.178 669.204 658.497C668.245 657.816 667.15 657.318 665.983 657.031L594.233 640.909L588.623 639.633L514.483 625.224C422.696 605.921 479.694 519.233 479.694 519.233C511.267 463.271 461.188 454.027 461.188 454.027L370.774 438.92C303.702 437.642 317.53 491.764 317.53 491.764L338.601 582.864C361.434 659.368 437.249 691.046 437.249 691.046L575.922 725.574C576.6 725.936 577.335 726.227 578.126 726.423L717.331 760.717C718.497 761.003 719.714 761.074 720.91 760.922C722.107 760.774 723.26 760.407 724.304 759.844C725.347 759.277 726.261 758.528 726.994 757.636C727.725 756.744 728.261 755.724 728.571 754.641L728.693 754.207C729.003 753.124 729.079 751.989 728.918 750.878C728.757 749.767 728.362 748.694 727.756 747.721C727.149 746.753 726.343 745.899 725.383 745.217C724.423 744.54 723.328 744.039 722.161 743.753Z" fill="url(#paint1_linear_1_228)"/>
<path d="M411.456 308.772L411.794 306.856C412.07 305.595 412.166 303.801 413.046 301.396C413.462 300.22 413.773 298.809 414.422 297.436C415.08 296.067 415.764 294.559 416.576 292.968C417.539 291.456 418.533 289.804 419.683 288.107C420.999 286.523 422.258 284.723 423.887 283.072C425.559 281.461 427.184 279.633 429.249 278.09C430.25 277.285 431.256 276.446 432.319 275.629L435.741 273.345L437.51 272.184L439.408 271.15C440.694 270.47 441.989 269.757 443.331 269.079C446.112 267.93 448.9 266.536 451.966 265.625C457.971 263.465 464.605 262.107 471.456 261.419L476.644 261.039C478.383 260.965 480.128 261.021 481.886 261.013L484.526 261.031C485.403 261.071 486.276 261.16 487.154 261.224L489.79 261.44L491.112 261.551L491.774 261.608L492.104 261.636L492.27 261.651L492.352 261.659C492.566 261.698 491.988 261.584 492.855 261.746L497.511 262.435C498.301 262.559 499.032 262.645 499.867 262.799L502.606 263.39C504.417 263.799 506.315 264.185 508.062 264.656L513.124 266.18C519.773 268.39 526.213 271.248 531.47 275.142C534.218 276.957 536.47 279.201 538.728 281.296C539.786 282.408 540.724 283.589 541.695 284.711L543.086 286.419L544.289 288.21C545.071 289.37 545.827 290.546 546.553 291.736C547.192 292.945 547.763 294.159 548.34 295.334C549.516 297.671 550.198 300.106 550.883 302.372C551.548 304.648 551.74 306.939 552.077 309.018C552.173 311.158 552.162 313.172 552.096 315.028C551.888 316.906 551.547 318.639 551.258 320.205C550.944 321.773 550.34 323.187 549.901 324.434C549.45 325.684 549.005 326.77 548.435 327.684C548.011 328.462 547.558 329.225 547.078 329.974C546.696 330.596 546.291 331.207 545.863 331.803C545.491 332.305 544.713 332.455 544.125 332.137C543.867 332.003 543.675 331.781 543.585 331.518L543.55 331.409C543.55 331.409 543.318 330.694 542.973 329.422C542.564 328.145 542.322 326.341 541.413 324.137C540.972 323.04 540.737 321.852 540.137 320.601L538.397 316.655C537.588 315.307 536.898 313.886 536.075 312.448L534.644 310.296C534.134 309.578 533.792 308.807 533.159 308.102C531.949 306.686 531.052 305.128 529.609 303.731L527.687 301.524C526.928 300.835 526.208 300.12 525.491 299.393L524.407 298.304C523.997 297.965 523.57 297.637 523.175 297.287L520.783 295.168C518.969 293.895 517.436 292.355 515.499 291.093C511.942 288.291 507.909 285.652 503.502 283.162L500.077 281.404C498.942 280.869 497.843 280.477 496.709 279.981L495.008 279.254C494.337 279.035 493.533 278.836 492.802 278.624L488.306 277.378L484.687 276.679C484.013 276.552 483.337 276.399 482.657 276.291L480.606 276.064C479.237 275.926 477.863 275.714 476.489 275.622L472.362 275.478C466.889 275.494 461.374 275.767 456.218 276.888C453.571 277.276 451.154 278.13 448.66 278.75L445.136 280.024L443.384 280.645L441.739 281.389L438.49 282.861L435.512 284.538C433.474 285.577 431.836 286.915 430.098 288.08C428.417 289.292 427.027 290.644 425.541 291.836C424.228 293.137 423.044 294.433 421.873 295.635L419.072 299.287C418.185 300.421 417.661 301.533 417.015 302.519C415.705 304.437 415.101 306.316 414.543 307.464L413.745 309.279C413.515 309.801 412.832 310.067 412.218 309.872C411.678 309.7 411.374 309.235 411.456 308.772Z" fill="url(#paint2_linear_1_228)"/>
<path d="M573.494 346.799C573.494 346.799 627.648 413.09 544.361 508.453L536.048 520.045C536.048 520.045 512.492 558.851 537.037 576.142C537.037 576.142 547.496 588.044 633.057 598.937C633.057 598.937 712.413 611.241 704.02 561.524L682.268 467.483C682.27 467.485 667.699 368.526 573.494 346.799Z" fill="url(#paint3_linear_1_228)"/>
<path d="M444.026 692.757C444.026 692.757 389.872 626.467 473.159 531.103L481.472 519.511C481.472 519.511 505.028 480.705 480.483 463.415C480.483 463.415 470.024 451.512 384.463 440.619C384.463 440.619 305.107 428.315 313.5 478.032L335.252 572.072C335.25 572.071 349.821 671.031 444.026 692.757Z" fill="url(#paint4_linear_1_228)"/>
<path d="M712.5 685.999L685.002 679.224C684.317 679.056 683.674 678.763 683.11 678.363C682.547 677.963 682.073 677.464 681.717 676.894C681.36 676.323 681.128 675.694 681.034 675.04C680.939 674.387 680.984 673.722 681.166 673.085L683.232 665.831C683.413 665.194 683.728 664.596 684.158 664.071C684.587 663.547 685.124 663.107 685.738 662.775C686.35 662.444 687.028 662.228 687.73 662.14C688.433 662.052 689.148 662.094 689.833 662.263L717.33 669.038C718.016 669.207 718.659 669.499 719.223 669.899C719.787 670.299 720.26 670.798 720.616 671.368C720.972 671.938 721.205 672.568 721.299 673.222C721.394 673.875 721.349 674.539 721.167 675.177L719.101 682.431C718.92 683.068 718.605 683.666 718.175 684.19C717.746 684.715 717.209 685.155 716.596 685.487C715.982 685.818 715.305 686.034 714.603 686.122C713.9 686.21 713.185 686.168 712.5 685.999Z" fill="url(#paint5_linear_1_228)"/>
<defs>
<linearGradient id="paint0_linear_1_228" x1="295" y1="456.229" x2="701.169" y2="456.229" gradientUnits="userSpaceOnUse">
<stop stop-color="#2B9EF8"/>
<stop offset="1" stop-color="#7536C3"/>
</linearGradient>
<linearGradient id="paint1_linear_1_228" x1="1074.8" y1="402.246" x2="309.542" y2="727.629" gradientUnits="userSpaceOnUse">
<stop stop-color="#2B9EF8"/>
<stop offset="1" stop-color="#7536C3"/>
</linearGradient>
<linearGradient id="paint2_linear_1_228" x1="631.682" y1="282.138" x2="288.75" y2="329.377" gradientUnits="userSpaceOnUse">
<stop stop-color="#2B9EF8"/>
<stop offset="1" stop-color="#7536C3"/>
</linearGradient>
<linearGradient id="paint3_linear_1_228" x1="769.659" y1="532.445" x2="526.911" y2="440.494" gradientUnits="userSpaceOnUse">
<stop stop-color="#2B9EF8"/>
<stop offset="1" stop-color="#7536C3"/>
</linearGradient>
<linearGradient id="paint4_linear_1_228" x1="271.519" y1="507.03" x2="495.657" y2="603.434" gradientUnits="userSpaceOnUse">
<stop stop-color="#2B9EF8"/>
<stop offset="1" stop-color="#7536C3"/>
</linearGradient>
<linearGradient id="paint5_linear_1_228" x1="758.416" y1="737.997" x2="660.485" y2="683.732" gradientUnits="userSpaceOnUse">
<stop stop-color="#2B9EF8"/>
<stop offset="1" stop-color="#7536C3"/>
</linearGradient>
</defs>
</svg>
